# xmcd
#
# Track frame offsets:
#	150
#	8002
#	20927
#	39581
#	57893
#	81797
#	106178
#	124707
#	139251
#	153575
#	171258
#
# Disc length: 2556 seconds
#
# Revision: 1
# Processed by: cddbd v1.5.2PL0 Copyright (c) Steve Scherf et al.
# Submitted via: EZCDAudioConverter 3.1.7.1
#
DISCID=8c09fa0b
DTITLE=Cookies 'N Beans - Beg, Borrow and Steal
DYEAR=2010
DGENRE=Alternative Country
TTITLE0=It's Alright
TTITLE1=Your Love Is Loaded
TTITLE2=Beg, Borrow and Steal
TTITLE3=Now It's Too Late
TTITLE4=King and Queens
TTITLE5=Shallow Waters
TTITLE6=Don't Walk Out That Door
TTITLE7=Watch My Tail
TTITLE8=The Road Away from You
TTITLE9=I Just Don't Have the Heart
TTITLE10=We Once Were Lovers
EXTD=
EXTT0=
EXTT1=
EXTT2=
EXTT3=
EXTT4=
EXTT5=
EXTT6=
EXTT7=
EXTT8=
EXTT9=
EXTT10=
PLAYORDER=
